<?xml version="1.0" encoding="utf-8"?>
<!-- Generator: Adobe Illustrator 16.0.0, SVG Export Plug-In . SVG Version: 6.00 Build 0)  -->
<!DOCTYPE svg PUBLIC "-//W3C//DTD SVG 1.1//EN" "http://www.w3.org/Graphics/SVG/1.1/DTD/svg11.dtd">
<svg version="1.1" id="Layer_1" xmlns="http://www.w3.org/2000/svg" xmlns:xlink="http://www.w3.org/1999/xlink" x="0px" y="0px"
	 width="284.5px" height="128.3px" viewBox="0 0 284.5 128.3" style="enable-background:new 0 0 284.5 128.3;" xml:space="preserve"
	>
<style type="text/css">
<![CDATA[
	.st0{fill:#FFFFFF;}
]]>
</style>
<g>
	<g>
		<path d="M58.1,100.4c-9.9,0-19.2-3.9-26.2-10.9c-14.5-14.5-14.5-38,0-52.5c7-7,16.3-10.9,26.2-10.9c9.9,0,19.2,3.9,26.2,10.9
			c7,7,10.9,16.3,10.9,26.2s-3.9,19.2-10.9,26.2C77.3,96.6,68,100.4,58.1,100.4z M58.1,28.8c-9.2,0-17.9,3.6-24.4,10.1
			c-13.4,13.4-13.4,35.3,0,48.8c6.5,6.5,15.2,10.1,24.4,10.1c9.2,0,17.9-3.6,24.4-10.1c6.5-6.5,10.1-15.2,10.1-24.4
			S89,45.4,82.5,38.9C76,32.4,67.3,28.8,58.1,28.8z"/>
	</g>
	<g>
		<path d="M8.5,114.4c-0.6,0-0.9-0.3-1-0.4c-0.8-0.8-0.9-2.7,4.5-10.2c3.7-5.1,9.5-12.1,16.6-20l1,0.9c-19,21.1-21.7,27.7-21.2,28.4
			c0.1,0,2,1.1,17.4-11.7c10.3-8.6,23.3-20.6,36.6-33.9S87.6,41.3,96.2,31c12.8-15.4,11.7-17.4,11.7-17.4c-0.8-0.5-7.5,2.3-29,21.8
			l-0.9-1c8.1-7.3,15.2-13.2,20.4-17.1c7.7-5.6,9.6-5.5,10.4-4.7c0.6,0.6,2.4,2.4-11.4,18.9C88.8,41.9,76.7,55,63.3,68.4
			C49.8,81.9,36.7,94,26.3,102.6C14.3,112.6,10.1,114.4,8.5,114.4z"/>
	</g>
</g>
<g>
	<path d="M125.1,76.6c2.3,0,4-0.5,5.2-1.6c1.2-1,1.8-2.4,1.8-4c0-1.4-0.5-2.6-1.4-3.5c-0.9-0.9-2.3-1.6-4.3-2.2l-4.4-1.3
		c-2.2-0.6-3.9-1.6-5.1-2.9c-1.2-1.3-1.9-3-1.9-5.1c0-1.3,0.2-2.5,0.7-3.5c0.5-1,1.2-1.9,2.1-2.6c0.9-0.7,2-1.3,3.3-1.7
		c1.3-0.4,2.7-0.6,4.3-0.6c1.4,0,2.6,0.1,3.8,0.3c1.2,0.2,2.2,0.5,3.1,0.9c0.9,0.4,1.5,0.8,2,1.3s0.7,1,0.7,1.5
		c0,0.5-0.1,0.9-0.4,1.2c-0.2,0.3-0.5,0.6-0.9,0.8c-0.9-0.7-2-1.3-3.4-1.8c-1.4-0.5-3-0.8-4.7-0.8c-2,0-3.6,0.4-4.7,1.3
		c-1.1,0.8-1.7,2-1.7,3.6c0,1.2,0.4,2.2,1.2,2.9c0.8,0.7,2.2,1.4,4.1,1.9l3.1,0.9c2.7,0.8,4.8,1.9,6.3,3.3c1.5,1.4,2.3,3.4,2.3,5.9
		c0,2.7-1,4.9-2.9,6.5c-1.9,1.7-4.7,2.5-8.3,2.5c-1.6,0-3-0.1-4.3-0.4c-1.3-0.3-2.4-0.6-3.3-1.1c-0.9-0.4-1.6-0.9-2.1-1.5
		c-0.5-0.5-0.7-1-0.7-1.6c0-0.6,0.2-1.1,0.5-1.5c0.4-0.4,0.8-0.7,1.2-0.8c0.4,0.4,0.8,0.8,1.4,1.1c0.5,0.4,1.2,0.7,1.9,1.1
		c0.7,0.3,1.5,0.6,2.4,0.8C123.1,76.5,124.1,76.6,125.1,76.6z"/>
	<path d="M151.4,55.2c3,0,5.3,0.7,7,2s2.6,3.4,2.6,6.3v12.1c0,0.7-0.1,1.3-0.4,1.7c-0.3,0.4-0.7,0.8-1.3,1.1
		c-0.8,0.5-1.9,0.9-3.2,1.2c-1.3,0.4-2.9,0.5-4.6,0.5c-3.2,0-5.7-0.6-7.4-1.9c-1.8-1.3-2.6-3.1-2.6-5.5c0-2.2,0.7-3.9,2.2-5.1
		c1.5-1.1,3.5-1.8,6.2-2.1l7.2-0.7v-1.4c0-1.7-0.5-2.9-1.5-3.7c-1-0.8-2.4-1.2-4.1-1.2c-1.4,0-2.8,0.2-4,0.6
		c-1.3,0.4-2.4,0.9-3.4,1.4c-0.3-0.2-0.5-0.5-0.7-0.8c-0.2-0.3-0.3-0.6-0.3-1c0-0.5,0.1-0.9,0.4-1.2c0.2-0.3,0.6-0.6,1.1-0.9
		c0.9-0.5,2-0.8,3.2-1.1C148.7,55.4,150,55.2,151.4,55.2z M151.4,76.8c1.4,0,2.6-0.1,3.5-0.4c0.9-0.3,1.6-0.6,2-0.8v-7.4l-6.3,0.7
		c-1.8,0.2-3.1,0.6-3.9,1.2c-0.8,0.6-1.3,1.6-1.3,2.8c0,1.3,0.5,2.3,1.5,3C147.9,76.4,149.4,76.8,151.4,76.8z"/>
	<path d="M176.5,80.1c-2.4,0-4.3-0.5-5.8-1.6s-2.2-2.8-2.2-5.3V49.1c0.2-0.1,0.4-0.1,0.8-0.2c0.4-0.1,0.7-0.1,1.1-0.1
		c1.4,0,2.1,0.6,2.1,1.8v5.9h8.4c0.1,0.2,0.2,0.4,0.3,0.7c0.1,0.3,0.2,0.6,0.2,0.9c0,1.2-0.5,1.7-1.5,1.7h-7.3V73
		c0,1.4,0.4,2.3,1.1,2.9c0.8,0.6,1.8,0.8,3.2,0.8c0.6,0,1.2-0.1,1.9-0.3c0.7-0.2,1.3-0.4,1.8-0.7c0.2,0.2,0.4,0.5,0.6,0.8
		c0.2,0.3,0.3,0.7,0.3,1.1c0,0.7-0.4,1.4-1.3,1.8C179.3,79.9,178.1,80.1,176.5,80.1z"/>
	<path d="M189.6,70.1c0.9,4.5,3.8,6.7,8.8,6.7c1.4,0,2.7-0.2,3.9-0.7c1.2-0.5,2.1-1,2.8-1.5c0.8,0.5,1.2,1.1,1.2,1.9
		c0,0.5-0.2,0.9-0.6,1.4c-0.4,0.4-1,0.8-1.7,1.2c-0.7,0.3-1.6,0.6-2.5,0.8c-1,0.2-2,0.3-3.1,0.3c-3.9,0-7.1-1.1-9.4-3.2
		c-2.3-2.1-3.4-5.3-3.4-9.4c0-1.9,0.3-3.7,0.8-5.2c0.6-1.5,1.3-2.8,2.3-3.8c1-1.1,2.2-1.9,3.6-2.4c1.4-0.6,2.9-0.8,4.5-0.8
		c1.5,0,2.9,0.3,4.2,0.8c1.3,0.5,2.4,1.2,3.3,2.2c0.9,0.9,1.7,2,2.2,3.3c0.5,1.3,0.8,2.7,0.8,4.2c0,0.7-0.2,1.3-0.5,1.6
		c-0.3,0.3-0.8,0.5-1.4,0.6L189.6,70.1z M196.6,58.5c-2.1,0-3.8,0.7-5.1,2.2c-1.4,1.4-2.1,3.5-2.1,6.2l14-1.9
		c-0.2-1.9-0.8-3.4-2-4.6C200.2,59.2,198.6,58.5,196.6,58.5z M200.9,44.4c0.7,0,1.4,0.2,1.8,0.6c0.5,0.4,0.7,0.8,0.7,1.3
		c0,0.5-0.1,0.9-0.3,1.1c-0.2,0.3-0.5,0.7-1,1.1l-4.6,4.5c-0.7,0-1.2-0.2-1.6-0.5c-0.4-0.4-0.6-0.8-0.6-1.2c0-0.3,0.1-0.5,0.3-0.8
		c0.2-0.2,0.3-0.5,0.5-0.7L200.9,44.4z"/>
	<path d="M216.8,79.6c-0.3,0.1-0.7,0.1-1.1,0.1c-1.5,0-2.2-0.6-2.2-1.8V46.4c0.2-0.1,0.4-0.1,0.8-0.2c0.4-0.1,0.7-0.1,1.1-0.1
		c1.5,0,2.2,0.6,2.2,1.8v31.4C217.4,79.4,217.2,79.5,216.8,79.6z"/>
	<path d="M225.4,48.5c0-0.7,0.2-1.3,0.7-1.8c0.5-0.5,1.1-0.7,1.9-0.7c0.8,0,1.4,0.2,1.9,0.7c0.5,0.5,0.7,1.1,0.7,1.8
		s-0.2,1.3-0.7,1.8S228.8,51,228,51c-0.8,0-1.4-0.2-1.9-0.7S225.4,49.2,225.4,48.5z M230.1,79.3c-0.2,0.1-0.4,0.1-0.8,0.2
		c-0.3,0.1-0.7,0.1-1.1,0.1c-1.5,0-2.2-0.6-2.2-1.8V56c0.2-0.1,0.4-0.1,0.8-0.2c0.4-0.1,0.7-0.1,1.1-0.1c1.4,0,2.1,0.6,2.1,1.9V79.3
		z"/>
	<path d="M246.1,80.1c-2.4,0-4.3-0.5-5.8-1.6c-1.5-1.1-2.2-2.8-2.2-5.3V49.1c0.2-0.1,0.4-0.1,0.8-0.2c0.4-0.1,0.7-0.1,1.1-0.1
		c1.4,0,2.1,0.6,2.1,1.8v5.9h8.4c0.1,0.2,0.2,0.4,0.3,0.7c0.1,0.3,0.2,0.6,0.2,0.9c0,1.2-0.5,1.7-1.5,1.7h-7.3V73
		c0,1.4,0.4,2.3,1.1,2.9c0.8,0.6,1.8,0.8,3.2,0.8c0.6,0,1.2-0.1,1.9-0.3c0.7-0.2,1.3-0.4,1.8-0.7c0.2,0.2,0.4,0.5,0.6,0.8
		c0.2,0.3,0.3,0.7,0.3,1.1c0,0.7-0.4,1.4-1.3,1.8C248.9,79.9,247.7,80.1,246.1,80.1z"/>
	<path d="M259.1,70.1c0.9,4.5,3.8,6.7,8.8,6.7c1.4,0,2.7-0.2,3.9-0.7c1.2-0.5,2.1-1,2.8-1.5c0.8,0.5,1.2,1.1,1.2,1.9
		c0,0.5-0.2,0.9-0.6,1.4c-0.4,0.4-1,0.8-1.7,1.2c-0.7,0.3-1.6,0.6-2.5,0.8c-1,0.2-2,0.3-3.1,0.3c-3.9,0-7.1-1.1-9.4-3.2
		c-2.3-2.1-3.4-5.3-3.4-9.4c0-1.9,0.3-3.7,0.8-5.2c0.6-1.5,1.3-2.8,2.3-3.8c1-1.1,2.2-1.9,3.6-2.4c1.4-0.6,2.9-0.8,4.5-0.8
		c1.5,0,2.9,0.3,4.2,0.8c1.3,0.5,2.4,1.2,3.3,2.2c0.9,0.9,1.7,2,2.2,3.3c0.5,1.3,0.8,2.7,0.8,4.2c0,0.7-0.2,1.3-0.5,1.6
		c-0.3,0.3-0.8,0.5-1.4,0.6L259.1,70.1z M266.2,58.5c-2.1,0-3.8,0.7-5.1,2.2c-1.4,1.4-2.1,3.5-2.1,6.2l14-1.9
		c-0.2-1.9-0.8-3.4-2-4.6C269.8,59.2,268.2,58.5,266.2,58.5z"/>
</g>
</svg>
